<svg width="279" height="57" viewBox="0 0 279 57" fill="none" xmlns="http://www.w3.org/2000/svg">
<path fill-rule="evenodd" clip-rule="evenodd" d="M261.758 11.96C271.287 11.96 278.511 19.3718 278.511 28.2163C278.511 37.1852 271.224 44.5349 261.758 44.5349C252.291 44.5349 245.067 37.1852 245.067 28.2163C245.067 19.3095 252.354 11.96 261.758 11.96ZM261.751 20.3059C257.205 20.3059 253.904 23.9184 253.904 28.2783C253.904 32.6383 257.205 36.2507 261.751 36.2507C266.297 36.2507 269.661 32.6383 269.661 28.2783C269.661 23.9184 266.297 20.3059 261.751 20.3059Z" fill="white"/>
<path d="M233.801 16.5438H240.888V24.2566H233.801V31.1166H233.798V31.2678C233.798 34.6934 235.853 36.6864 239.092 36.6864C240.898 36.6863 242.272 35.7572 243.579 34.6543L247.675 40.6038C243.553 44.497 240.462 44.5965 238.282 44.5965C229.376 44.5965 224.954 39.2398 224.954 31.5165V24.8298H224.96V11.9824H233.801V16.5438Z" fill="white"/>
<path d="M205.051 44.535C196.082 44.535 189.792 37.1853 189.792 28.2163C189.792 19.3719 197.017 11.96 206.483 11.96C216.137 11.96 223.236 18.9359 223.236 28.2163V43.9846H214.829V40.1127C212.649 42.8533 209.286 44.535 205.051 44.535ZM206.483 36.2511C211.03 36.2511 214.393 32.6385 214.393 28.2786C214.393 23.9187 211.03 20.3061 206.483 20.3061C201.937 20.3061 198.636 23.9187 198.636 28.2786C198.636 32.6385 201.937 36.2511 206.483 36.2511Z" fill="white"/>
<path fill-rule="evenodd" clip-rule="evenodd" d="M171.309 12.0215C180.963 12.0215 188.063 18.9351 188.063 28.2155V40.6725C188.063 49.59 180.589 56.6905 170.562 56.6905C164.399 56.6905 159.46 54.3784 156.402 50.1416L162.46 44.0228C163.857 46.5935 166.383 48.5935 170.438 48.5935C175.669 48.5935 179.219 44.9187 179.219 40.9217V40.3613C177.537 42.4789 174.548 44.0983 170.188 44.0983C161.531 44.0982 154.618 37.3714 154.618 28.2155C154.618 19.3088 161.843 12.0215 171.309 12.0215ZM171.185 20.3677C166.825 20.3677 163.338 23.6066 163.338 28.0288C163.338 32.451 166.825 35.7521 171.185 35.7521C175.607 35.7521 179.094 32.451 179.094 28.0288C179.094 23.6066 175.607 20.3677 171.185 20.3677Z" fill="white"/>
<path fill-rule="evenodd" clip-rule="evenodd" d="M137.382 11.9824C147.179 11.9824 152.859 19.1569 152.859 27.5065V30.1041H152.854V31.6214H130.263C131.365 34.8466 135.039 36.9075 138.895 36.9075C142.485 36.9075 146.531 34.5507 148.073 33.0086L152.505 39.386C149.757 41.7258 144.059 44.5154 138.958 44.5154C129.347 44.5154 121.344 37.8976 121.344 28.1254C121.344 19.281 127.834 11.9825 137.382 11.9824ZM137.32 19.6517C133.451 19.6517 130.892 22.1257 130.268 25.218H144.059C143.685 22.0639 141.064 19.6518 137.32 19.6517Z" fill="white"/>
<path d="M102.327 24.4951C102.327 31.7816 105.316 35.3313 111.481 35.3321C111.532 35.3321 121.067 35.3225 121.118 35.322V43.9845L111.481 43.9895C98.964 43.9887 93.2348 36.7649 93.2346 24.6827L93.2347 11.9824H102.327L102.327 24.4951Z" fill="white"/>
<path d="M0 11.8599C1.74774 13.527 3.85707 14.8122 6.1969 15.5868V22.8994C6.1969 37.7022 18.1127 49.7026 32.8111 49.7027L33.4616 49.6945C40.171 49.5294 46.5804 46.8155 51.3957 42.0844L56.5133 37.2628V45.9365L55.7226 46.5517C49.7864 52.3841 41.8849 55.7298 33.6129 55.9335L32.8111 55.9436C14.6903 55.9435 0 41.149 0 22.8994V11.8599Z" fill="white"/>
<path d="M54.5323 27.7297C55.7654 29.1502 56.5132 31.0092 56.5133 33.0443V34.4724L49.9534 40.5952C45.3684 45.1002 39.2166 47.6223 32.8111 47.6224C19.2534 47.6224 8.26253 36.5534 8.26253 22.8994V16.1241C9.26625 16.3159 10.3018 16.4177 11.361 16.4177C12.4201 16.4177 13.4557 16.3159 14.4594 16.1241V22.8994C14.4594 32.9471 22.4208 41.1223 32.337 41.3753C37.131 41.4369 41.7856 39.7297 45.3017 36.4397L54.5323 27.7297Z" fill="white"/>
<path d="M52.7996 26.2294L43.8785 34.9312C40.7463 37.8538 36.6233 39.3421 32.3633 39.295C23.5764 39.0568 16.5251 31.807 16.5251 22.8994V15.5868C18.8649 14.8122 20.9742 13.527 22.722 11.8599C22.722 15.7809 22.4499 19.7987 22.7562 23.7089C22.9989 26.8065 24.6189 29.5133 27.0015 31.2064C30.8481 33.9393 36.1868 33.5999 39.6666 30.3531L43.1905 26.9821C44.6423 25.6947 46.5107 24.975 48.4565 24.9668C49.9986 24.9829 51.4964 25.3919 52.7996 26.2294Z" fill="white"/>
<path d="M48.9376 16.6486C57.7244 16.8868 64.7758 24.1366 64.7758 33.0443V40.3558C62.4361 41.1304 60.3266 42.4158 58.5789 44.0827V33.0443C58.5789 28.7202 55.7091 24.7297 51.6255 23.3862C48.182 22.2534 44.3044 23.0992 41.6343 25.5905L38.1133 28.9575C36.5723 30.3258 34.599 30.9952 32.5529 30.9738C31.0646 30.9274 29.678 30.4713 28.5003 29.7142L37.1086 21.313C40.3041 18.25 44.5215 16.5998 48.9376 16.6486Z" fill="white"/>
<path d="M48.4898 8.32125C62.0474 8.32125 73.0383 19.3903 73.0383 33.0443V39.8185C72.0346 39.6267 70.9989 39.5259 69.9399 39.5259C68.8808 39.5259 67.8451 39.6267 66.8414 39.8185V33.0443C66.8414 22.9966 58.88 14.8214 48.9638 14.5683C44.0082 14.5046 39.2587 16.3843 35.6744 19.8148L26.7675 28.2129C25.535 26.7926 24.7876 24.9339 24.7876 22.8994V21.4702L31.3474 15.3484C35.9324 10.8435 42.0843 8.32137 48.4898 8.32125Z" fill="white"/>
<path d="M48.4898 0C66.6107 0 81.3008 14.7946 81.3008 33.0443V44.0827C79.5531 42.4158 77.4437 41.1304 75.1039 40.3558V33.0443C75.1039 18.2413 63.1882 6.24094 48.4898 6.24094L47.8392 6.24906C41.1298 6.41421 34.7204 9.1281 29.9051 13.8593L24.7876 18.6798V10.0061L25.5782 9.39188C31.5145 3.55945 39.4159 0.21377 47.6879 0.0101578L48.4898 0Z" fill="white"/>
</svg>
